<svg xmlns="http://www.w3.org/2000/svg" data-name="Layer 1" viewBox="0 0 512 640" x="0px" y="0px"><title>Alcohol Bottle</title><path d="M303.653,169.36l-7.085-102.8A18.067,18.067,0,0,0,306,50.773V22.106A18.112,18.112,0,0,0,288,4H224a18.112,18.112,0,0,0-18,18.106V50.773a18.01,18.01,0,0,0,9.305,15.75l-7.028,102.853A68.008,68.008,0,0,0,157,235.318V454.8a28.09,28.09,0,0,0,19,26.507v8.587A17.9,17.9,0,0,0,193.755,508h124.49A17.9,17.9,0,0,0,336,489.894v-8.587A28.09,28.09,0,0,0,355,454.8V235.318A68.006,68.006,0,0,0,303.653,169.36ZM290,51a2,2,0,0,1-2,2H224a2,2,0,0,1-2-2V22a2,2,0,0,1,2-2h64a2,2,0,0,1,2,2ZM231.187,69h49.557l6.852,98.281c-.117,0-.234-.281-.351-.281h-62.49c-.141,0-.279.282-.42.283Zm87.058,423H193.755A1.9,1.9,0,0,1,192,489.894V483H320v6.894A1.9,1.9,0,0,1,318.245,492ZM339,429H263V272h76Zm0-173H254.755c-4.418,0-7.755,3.9-7.755,8.318V436.8a7.966,7.966,0,0,0,7.755,8.2H339v9.8A11.979,11.979,0,0,1,327.245,467H184.755A11.979,11.979,0,0,1,173,454.8V235.318C173,206.645,196.082,183,224.755,183h62.49C315.918,183,339,206.645,339,235.318Z"/><text x="0" y="527" fill="#000000" font-size="5px" font-weight="bold" font-family="'Helvetica Neue', Helvetica, Arial-Unicode, Arial, Sans-serif">Created by Shastry</text><text x="0" y="532" fill="#000000" font-size="5px" font-weight="bold" font-family="'Helvetica Neue', Helvetica, Arial-Unicode, Arial, Sans-serif">from the Noun Project</text></svg>