<svg xmlns="http://www.w3.org/2000/svg" xmlns:xlink="http://www.w3.org/1999/xlink" version="1.1" x="0px" y="0px" viewBox="0 0 100 125" enable-background="new 0 0 100 100" xml:space="preserve"><g><path fill="#000000" d="M49.8,55.9c-5.3,0-9.6,5.6-9.6,12.5s4.3,12.5,9.6,12.5s9.6-5.6,9.6-12.5S55.1,55.9,49.8,55.9z M49.8,77.7   c-3.5,0-6.4-4.2-6.4-9.3c0-5,2.9-9.3,6.4-9.3s6.4,4.2,6.4,9.3C56.3,73.4,53.3,77.7,49.8,77.7z"/><path fill="#000000" d="M45.7,23.8c0.6,0.2,2.2,0.6,4.2,0.6c2,0,3.4-0.4,4-0.6c0.1,0,0.2-0.2,0.2-0.4l-0.2-2c0-0.2-0.2-0.4-0.4-0.3   c-3.3,1-6.3,0.3-7.3,0c-0.2-0.1-0.4,0.1-0.4,0.3l-0.3,1.9C45.4,23.6,45.5,23.8,45.7,23.8z"/><path fill="#000000" d="M45.9,8.7L45.9,8.7l1.3-1.3l1.3,1.3v0l0,0l1.3-1.3l1.3,1.3l0,0v0l1.3-1.3l1.3,1.3v0l0,0l1.3-1.3v0l0.1-0.1   V6.3c0-0.7-0.6-1.3-1.3-1.3h-8c-0.7,0-1.3,0.6-1.3,1.3v1.1L45.9,8.7L45.9,8.7z"/><path fill="#000000" d="M61.9,41.7l-1.3-2c-1.3-2-2.1-4.2-2.4-6.6L55.6,13c0.5-0.5,0.7-1.1,0.5-1.8L55.3,8l-1,1l-0.4,0.4l-0.4-0.4   l-0.9-0.9l-0.9,0.9l-0.4,0.4l-0.4-0.4l-0.9-0.9l-0.9,0.9l-0.4,0.4l-0.4-0.4l-0.9-0.9l-0.9,0.9l-0.4,0.4l-0.4-0.4l-1-1l-0.8,3.1   c-0.2,0.7,0,1.4,0.5,1.8l-2.6,20.3c-0.3,2.3-1.1,4.6-2.4,6.6l-1.2,1.9l0,0.1c-1.4,2.6-2.1,5.4-2.1,8.3v37.9c0,1.3,0.6,2.6,1.6,3.4   c4.2,3.4,11,3.6,12.3,3.6l0.2,0l0.2,0c0,0,0,0,0,0c1.4,0,8.5-0.2,12.5-3.6c1-0.8,1.5-2,1.5-3.3v-38C64,47.2,63.3,44.3,61.9,41.7z    M45.7,13.5H54l2.1,16.2c-0.5,0.4-1.1,0.9-1.4,1.6c-0.8,1.6-1.5,4.1-4.9,4.1c-3.1,0-4-2.6-4.9-4.1c-0.4-0.7-0.9-1.3-1.4-1.7   L45.7,13.5z M55.6,45.4L55.6,45.4c-0.4,0.5-1,0.6-1.4,0.2l0,0c-0.4-0.4-0.4-1.1,0.1-1.4l0.1-0.1c0.4-0.3,0.9-0.2,1.2,0.1   C55.9,44.4,55.9,45,55.6,45.4z M50.5,42.2c0.4,0.3,0.4,0.9,0.1,1.3l-0.1,0.1c-0.3,0.4-1,0.5-1.4,0.1l0,0c-0.4-0.4-0.4-1.1,0.1-1.4   l0.1-0.1C49.7,41.8,50.2,41.9,50.5,42.2z M44.5,42.4l0.2-0.1c0.8-0.6,1.9-0.5,2.6,0.1c0.8,0.7,0.9,1.9,0.3,2.8l-0.1,0.2   c-0.7,1-2.2,1.1-3.1,0.2l0,0C43.3,44.7,43.4,43.2,44.5,42.4z M49.9,83.9c-6.5,0-11.8-6.9-11.8-15.4S43.4,53,49.9,53   c6.5,0,11.8,6.9,11.8,15.4S56.4,83.9,49.9,83.9z"/></g></svg>