<svg xmlns="http://www.w3.org/2000/svg" xmlns:xlink="http://www.w3.org/1999/xlink" version="1.1" x="0px" y="0px" viewBox="0 0 100 125" enable-background="new 0 0 100 100" xml:space="preserve"><g><path fill="#000000" d="M45.7,15.3c-0.1-0.1-0.2-0.1-0.3-0.2c-0.1,0-1.8-0.5-3.2-0.5c-1,0-1.6,0.2-1.9,0.7c-0.3,0.4-0.2,1,0.2,1.7   c0.4,0.7,1.1,1,2.2,1c1.6,0,3.6-0.7,3.7-0.7c0.2-0.1,0.3-0.2,0.3-0.4c0-0.2,0-0.4-0.1-0.5L45.7,15.3z M42.7,16.9   c-0.5,0-1.1-0.1-1.3-0.4c-0.2-0.4-0.2-0.6-0.2-0.6c0,0,0.1-0.2,1-0.2c1,0,2.3,0.3,2.8,0.4l0.3,0.4C44.6,16.7,43.6,16.9,42.7,16.9z"/><path fill="#000000" d="M48.9,15.2c-0.1,0.2,0,0.5,0.2,0.6c0,0,0,0.1,0.1,0.1c0.2,0.4,0.5,1.1,1.8,1.1c0,0,0,0,0,0   c0.5,0,1.2-0.1,2.1-0.3c0.9-0.1,3.1-0.4,3.4-1.3c0.1-0.2,0.2-0.7-0.3-1.2c-0.4-0.4-1.1-0.6-2-0.6C52.6,13.6,49.2,14.3,48.9,15.2z    M55.4,15c-0.3,0.2-1.4,0.5-2.5,0.6c0,0-0.1,0-0.1,0C52,15.9,51.4,16,51,16c-0.6,0-0.7-0.2-0.8-0.5c0.7-0.3,2.5-0.9,4-0.9   C55,14.6,55.3,14.8,55.4,15C55.4,15,55.4,15,55.4,15z"/><path fill="#000000" d="M74.3,25.1l-2.8-4.9v-6.3C71.5,8.1,60.1,5,49.4,5s-22.1,3.1-22.1,8.9v5.8l0.3,0.3c0,0,0,0,0,0   c-0.1-0.1-0.2-0.2-0.2-0.2l-2.9,5.3c-1.2,1.8-1.3,4-1.3,6.1l1.1,48.6c0,2.7,1.4,5.5,3.7,7l1.1,4.6l0.4,0.2C29.8,91.8,36,95,49.4,95   c13.4,0,19.7-3.6,19.9-3.7l0.4-0.2l1.1-4.3c2.2-1.5,3.7-4.3,3.7-7l1.1-48.6C75.6,29,75.5,26.9,74.3,25.1z M29,31.1l2.2-5.7   c0.1-0.3,0.5-0.4,0.7-0.3c5.5,2.5,10.7,2.6,12.4,2.6c0.3,0,0.6,0.2,0.6,0.6l0,6.1c0,0.3-0.2,0.5-0.5,0.5c-8,0-13.5-2.4-15.1-3.1   C29,31.6,28.9,31.3,29,31.1z M29.4,81.2L29,34.9l5.7,1.8c0,0,0,45.5,0,46C34.7,83.2,29.4,81.2,29.4,81.2z M67.9,89.6   c-1.5,0.7-7.5,3.2-18.5,3.2c-10.9,0-16.9-2.2-18.5-2.9l-0.5-2c4.1,1.6,9.8,3.3,18.9,3.3c9.1,0,14.8-1.6,18.9-3.2L67.9,89.6z    M47.3,34.4l0-6c0-0.3,0.3-0.6,0.6-0.5c1.8,0.3,5.2-0.2,6.5-0.4c0.3,0,0.6,0.2,0.6,0.5l0.9,5.9c0,0.3-0.1,0.6-0.4,0.6   c-2.3,0.5-6.2,0.5-7.7,0.5C47.5,34.9,47.3,34.7,47.3,34.4z M69.4,19.3c-1.3,1.1-6.9,5.3-19.9,5.3c-13.1,0-18.7-4.7-19.9-5.8v-1   c3.8,3.2,12,4.9,19.9,4.9c7.9,0,16.1-1.7,19.9-4.9V19.3z M54.3,11.4c-1.1,0-2.2,0.2-3.4,0.5l-0.1,0c0,0-1.7,0.9-4.1,0.9   c-0.4,0-0.9,0-1.3-0.1c-1.2-0.2-2.3-0.3-3.4-0.3c-2.4,0-3.8,1-4.4,2.9c-0.3,1-0.1,1.9,0.4,2.6c1.3,1.7,4.3,1.9,5.9,1.9c0,0,0,0,0,0   c0.6,0,1.1,0,1.7-0.1l0.8-0.1c3.9-0.3,6.1-0.5,10-1.8c0.8-0.3,1.9-0.7,2.3-1.7c0.3-0.7,0.3-1.5-0.1-2.4c-0.4-1-1.2-1.7-2.4-2   c6.2,1.2,8.8,3.9,9.8,5.6c-3.4,1.9-9.4,3.3-16.9,3.3c-7.5,0-13.6-1.4-16.9-3.3c1.3-2.1,5.2-6.2,16.9-6.2c0,0,0,0,0,0l0-0.5l0,0.5   c0,0,0,0,0,0c1.9,0,3.5,0.1,5,0.3C54.5,11.4,54.4,11.4,54.3,11.4z M58,14.2c0.3,0.6,0.3,1.1,0.1,1.5c-0.3,0.6-1.1,1-1.7,1.2   c-3.8,1.3-6,1.4-9.8,1.8l-0.8,0.1c-0.5,0-1.1,0.1-1.6,0.1c0,0,0,0,0,0c-2.5,0-4.3-0.5-5.1-1.5c-0.3-0.5-0.4-1-0.3-1.7   c0.4-1.5,1.4-2.1,3.3-2.1c0.9,0,2,0.1,3.2,0.3c0.5,0.1,1,0.1,1.5,0.1c2.4,0,4.2-0.9,4.5-1c1-0.3,2.1-0.5,3-0.5   C56.2,12.5,57.5,13.1,58,14.2z M67.3,16.7c-1.4-2.4-5.7-6.7-17.8-6.7c0,0,0,0,0,0c0,0,0,0,0,0c0,0,0,0,0,0   c-12.2,0-16.4,4.2-17.8,6.7c-1.3-0.9-2-1.9-2-2.8c0-3.2,8.2-6.7,19.9-6.7c11.7,0,19.9,3.5,19.9,6.7C69.4,14.8,68.6,15.8,67.3,16.7z   "/></g></svg>