<svg xmlns="http://www.w3.org/2000/svg" xmlns:xlink="http://www.w3.org/1999/xlink" version="1.1" x="0px" y="0px" viewBox="0 0 100 125" enable-background="new 0 0 100 100" xml:space="preserve"><g fill="#ffffff"><path d="M77.812,43.998c-1.764,0-3.461,0.285-5.056,0.8l-8.977-9.696l1.747-5.456c0.025,0.009,2.69,0.99,3.304,0.639   c0.452-0.258,1.472-2.847,0.894-3.93c-0.525-0.983-10.349-0.899-10.458,0c-0.122,0.999,3.562,1.872,3.562,1.872l-1.77,5.528h-25.14   l1.611-5.452c0.668-2.263,2.257-2.308,2.548-2.289l3.402,0.005v-0.013h0.001v-3h-3.22c-1.5-0.097-4.505,0.705-5.607,4.434   l-2.271,7.686c-1.391,4.652-2.882,8.282-3.725,10.193c-1.987-0.85-4.173-1.323-6.467-1.323c-9.098,0-16.5,7.402-16.5,16.5   c0,9.098,7.402,16.5,16.5,16.5s16.5-7.402,16.5-16.5c0-5.73-2.939-10.783-7.386-13.742c0.336-0.751,0.776-1.775,1.275-3.034   l19.748,18.127c-0.128,1.03-0.091,1.949,0.286,2.501c0.287,0.423,0.729,0.662,1.24,0.674c1.928,0.045,4.932,0.077,8.132,0.098   c2.006,6.852,8.337,11.876,15.828,11.876c9.098,0,16.5-7.402,16.5-16.5C94.312,51.4,86.909,43.998,77.812,43.998z M27.876,53.15   c0.119,0.269,0.182,0.629,0.485,0.637c0.409,0.01,1.257,0.156,0.585,0.507c-0.615,0.321-1.112,0.874-1.908,0.363L27.876,53.15z    M35.688,60.499c0,7.444-6.056,13.5-13.5,13.5s-13.5-6.056-13.5-13.5c0-1.829,0.369-3.573,1.032-5.166   c0.198,0.223,0.61,1.662,0.746,2.206c0.146,0.585,1.082,0.731,1.667,0.936c0.585,0.205,0.877,1.111,1.491,1.228   c0.614,0.117,0.029,1.462-0.205,2.164c-0.234,0.702,0.231,1.748,0.76,2.31c0.726,0.771,0.819-0.263,1.111,2.953   c0.292,3.217,1.157,3.983,1.654,4.041s-0.016-0.737-0.118-1.118c-0.085-0.32-0.337-1.665,0.424-2.045   c0.76-0.38,0.969-1.755,1.433-2.361c0.645-0.841,0.933-1.897,0.936-3.166c0.003-1.048-1.495-0.919-1.905-2.063   c-0.257-0.719-2.54-2.118-3.008-1.651c-0.468,0.468-1.374,0.906-1.404,0.351s-0.146-1.023-0.468-1.082s0.205-0.76,0-0.965   c-0.205-0.205-0.702,0.468-1.023,0.614c-0.322,0.146-0.497-1.491,0.79-2.076c1.287-0.585,1.082,0.468,1.404,0.76   c0.322,0.292,0.146-1.023,0.146-1.345s1.082-1.784,2.866-2.719s0.965-1.638,0.439-2.174s-0.936-0.283-1.524,0.536   s-1.313,0.234-1.488-0.146c-0.175-0.38,1.93-1.053,1.404-1.287c-0.383-0.17-1.102,0.107-1.468,0.272   c2.207-1.573,4.899-2.508,7.81-2.508c1.811,0,3.536,0.364,5.116,1.013l-0.321,0.577c-0.069,0.002-0.127,0-0.2,0.003   c-1.959,0.088-2.076,1.462-1.257,1.55c0.272,0.029,0.419,0.095,0.516,0.14l-0.236,0.424c-0.103-0.024-0.19-0.078-0.25-0.183   c-0.257-0.452-0.585,0.702-1.111,0.76c-0.526,0.059,0.117,0.409,0,0.877c-0.117,0.468-1.316-0.205-1.14,1.111   c0.096,0.723,0.528,0.571,0.941,0.24l-0.231,0.415c-0.708,0.518-1.567,1.559-1.769,2.637c-0.606,0.142-1.249,0.433-1.856,0.984   c-2.099,1.903,0.859,4.745,3.31,2.8c0.077-0.061,0.147-0.127,0.215-0.196l0.053,0.03l0.106-0.191   c0.084,0.006,0.167,0.019,0.255,0.007c1.111-0.146,1.558-0.058,1.408,0.994c-0.15,1.053,0.902,1.608,0.551,2.339   c-0.351,0.731,0,3.392,0.526,4.094c0.526,0.702,1.462,0.351,1.901-0.556c0.439-0.906,0.556-2.31,1.228-2.719   c0.673-0.409-0.058-2.222,0.263-2.924s1.755-2.31,1.345-2.661c-0.409-0.351-0.848,0.614-1.17,0s-1.784-3.392-1.433-3.363   c0.351,0.029,1.199,2.787,1.579,2.987c0.38,0.2,2.135-1.057,2.076-1.613c-0.058-0.556-0.819-0.38-1.111-0.789   c-0.292-0.409-0.556-0.731,0.146-0.409s0.936,0.088,1.579,0.468c0.643,0.38,1.257,2.807,1.667,3.187   c0.373,0.346,0.55-0.375,0.557-1.081C35.598,58.776,35.688,59.627,35.688,60.499z M77.812,46.998c2.439,0,4.722,0.66,6.699,1.796   c-0.339-0.118-0.993-0.255-2.169-0.202c-1.959,0.088-2.076,1.462-1.257,1.55c0.819,0.088,0.556,0.526,0.936-0.38   s1.023,0.337,0.556,0.563s-1.205,0.649-1.462,0.197c-0.257-0.452-0.585,0.702-1.111,0.76c-0.526,0.059,0.117,0.409,0,0.877   c-0.117,0.468-1.316-0.205-1.14,1.111c0.175,1.316,1.462-0.263,1.725-0.556s1.006-0.117,1.249,0.292   c0.243,0.409,1.032,0.263,0.623-0.117c-0.409-0.38-1.005-0.781-0.623-0.643c0.945,0.34,0.798,1.316,1.091,1.228   c0.292-0.088,0.088-0.76,0.351-0.556s0.234,0.857,0.643,0.867c0.409,0.01,1.257,0.156,0.585,0.507   c-0.673,0.351-1.199,0.994-2.135,0.205c-0.936-0.789-1.382-1.06-2.164-0.906c-0.73,0.144-2.317,1.725-2.422,3.266   c-0.934-0.213-1.864-0.213-2.486-0.215c-1.44,0.001-3.68,0.002-6.164,0.002c-0.047-0.004-0.085-0.004-0.114,0   c-0.584,0-1.181,0-1.783,0c0.129-0.393,0.403-0.799,0.923-1.035c1.287-0.585,1.082,0.468,1.404,0.76   c0.322,0.292,0.146-1.023,0.146-1.345s1.082-1.784,2.866-2.719s0.965-1.638,0.439-2.174c-0.526-0.536-0.936-0.283-1.524,0.536   c-0.588,0.819-1.313,0.234-1.488-0.146c-0.175-0.38,1.93-1.053,1.404-1.287c-0.334-0.149-0.926,0.045-1.315,0.206   C72.281,47.906,74.94,46.998,77.812,46.998z M53.342,57.855c-0.073,0.21-0.144,0.426-0.218,0.654L33.716,40.695   c0.425-1.194,0.865-2.51,1.302-3.927h25.074l-0.005,0.016h0.003L53.342,57.855z M61.785,56.645c-1.891,0-3.609,0-4.905-0.001   l5.848-18.261l7.111,7.679C65.847,48.276,62.879,52.098,61.785,56.645z M65.323,55.388c0.125,0.214,0.302,0.748,0.454,1.257   c-0.3,0-0.599,0-0.898,0C65.007,56.217,65.155,55.798,65.323,55.388z M77.812,73.999c-5.812,0-10.762-3.698-12.661-8.858   c1.911,0.009,3.786,0.016,5.454,0.02c0.079,0.358,0.152,0.949,0.245,1.971c0.292,3.217,1.157,3.983,1.654,4.041   c0.497,0.058-0.016-0.737-0.119-1.118c-0.085-0.32-0.337-1.665,0.424-2.045s0.969-1.755,1.433-2.361   c0.115-0.15,0.206-0.316,0.299-0.48c0.76,0.001,1.351,0.001,1.705,0.001c0.23,0,0.364,0,0.383,0   c1.571-0.101,4.542-1.075,4.542-4.046c0-0.4-0.047-0.751-0.113-1.081c0.235,0.134,0.311,0.419,0.236,0.948   c-0.15,1.053,0.902,1.608,0.551,2.339c-0.351,0.731,0,3.392,0.526,4.094c0.526,0.702,1.462,0.351,1.901-0.556   c0.439-0.906,0.556-2.31,1.228-2.719c0.673-0.409-0.058-2.222,0.263-2.924s1.755-2.31,1.345-2.661c-0.409-0.351-0.848,0.614-1.17,0   s-1.784-3.392-1.433-3.363c0.351,0.029,1.199,2.787,1.579,2.987c0.38,0.2,2.135-1.057,2.076-1.613s-0.819-0.38-1.111-0.789   c-0.292-0.409-0.556-0.731,0.146-0.409c0.702,0.322,0.936,0.088,1.579,0.468c0.643,0.38,1.257,2.807,1.667,3.187   c0.409,0.38,0.585-0.526,0.556-1.287c-0.002-0.046-0.009-0.111-0.013-0.166c0.209,0.942,0.327,1.917,0.327,2.92   C91.312,67.943,85.256,73.999,77.812,73.999z"/></g><g><path d="M22.207,48.58c1.711-0.889-0.686-1-1.945-0.719c-0.293,0.065-0.526,0.205-1.17,0.263c-0.643,0.058-0.069,0.836,0.34,1.83   C19.842,50.948,20.495,49.469,22.207,48.58z"/></g><g><path d="M14.092,56.75c-0.409-0.117-1.111-0.234-0.351,0.175c0.76,0.409,0.731,0.497,0.848,0.205   C14.706,56.838,14.092,56.75,14.092,56.75z"/></g><g><path d="M31.315,63.3c-0.234,0.088-0.614,0.263-0.994,1.491c-0.38,1.228,0.497,0.906,0.789,0.439   C31.403,64.763,31.627,63.183,31.315,63.3z"/></g><g><path d="M24.589,50.96c0.322-0.175-0.117-0.38-0.292-0.304c-0.175,0.076-0.064-0.816-0.263-0.69c-0.322,0.205-0.029,0.614,0,0.994   C24.063,51.341,24.268,51.136,24.589,50.96z"/></g><g><path  d="M14.734,57.13c0,0-0.057-0.029-0.028,0.263s0.731,0.263,0.848,0.029C15.671,57.189,15.174,57.013,14.734,57.13z"/></g><g><path  d="M23.654,51.175c0.205-0.107,0.088-0.566-0.234-0.611c0,0-0.323-0.061-0.292,0.305   C23.156,51.222,23.449,51.282,23.654,51.175z"/></g><g><path d="M22.207,49.557c0.103,0.205,0.687,0,0.774-0.324s-0.088-0.219-0.468-0.202C22.095,49.049,22.104,49.352,22.207,49.557z"/></g><g><path d="M18.068,48.796c-0.789-0.292-1.491-0.667-1.521-0.216c-0.029,0.45,0.965,0.285,0.731,0.602   c-0.234,0.316-1.111,0.276-0.556,0.457c0.556,0.181,1.013-0.044,1.199-0.141C18.305,49.299,18.858,49.089,18.068,48.796z"/></g><g><path d="M77.766,48.58c1.711-0.889-0.686-1-1.945-0.719c-0.293,0.065-0.526,0.205-1.17,0.263c-0.643,0.058-0.069,0.836,0.34,1.83   S76.055,49.469,77.766,48.58z"/></g><g><path d="M86.874,63.3c-0.234,0.088-0.614,0.263-0.994,1.491c-0.38,1.228,0.497,0.906,0.79,0.439   C86.962,64.763,87.186,63.183,86.874,63.3z"/></g><g><path d="M80.149,50.96c0.322-0.175-0.117-0.38-0.292-0.304c-0.175,0.076-0.064-0.816-0.263-0.69c-0.322,0.205-0.029,0.614,0,0.994   C79.622,51.341,79.827,51.136,80.149,50.96z"/></g><g><path d="M79.213,51.175c0.205-0.107,0.088-0.566-0.234-0.611c0,0-0.323-0.061-0.292,0.305   C78.716,51.222,79.008,51.282,79.213,51.175z"/></g><g><path d="M77.766,49.557c0.103,0.205,0.687,0,0.774-0.324c0.088-0.324-0.088-0.219-0.468-0.202   C77.655,49.049,77.663,49.352,77.766,49.557z"/></g><g><path d="M72.282,49.639c0.556,0.181,1.013-0.044,1.199-0.141c0.383-0.199,0.936-0.409,0.146-0.702   c-0.79-0.292-1.491-0.667-1.521-0.216c-0.029,0.45,0.965,0.285,0.731,0.602C72.604,49.498,71.727,49.458,72.282,49.639z"/></g></svg>