<svg xmlns="http://www.w3.org/2000/svg" xmlns:xlink="http://www.w3.org/1999/xlink" version="1.1" x="0px" y="0px" viewBox="0 0 100 125" enable-background="new 0 0 100 100" xml:space="preserve"><g><path fill="#000000" d="M46.2,16.8l2.4,1.6c0.1,0.1,0.2,0.1,0.3,0.1c0.1,0,0.1,0,0.2,0l3.2-1.3c0.2-0.1,0.3-0.3,0.3-0.5   c0-0.2-0.1-0.4-0.3-0.5L49,14.8c-0.1-0.1-0.3,0-0.4,0l-2.4,1.1C46.1,16,46,16.2,46,16.4C45.9,16.5,46,16.7,46.2,16.8z M48.8,15.8   l1.9,0.8l-1.9,0.8l-1.4-0.9L48.8,15.8z"/><path fill="#000000" d="M69.8,20.2c-0.1-1.5-1.2-2.5-1.8-3v-3.2c0-0.2,0.1-0.4,0.1-0.6c0-0.2,0-0.4-0.1-0.6v0h0   c-0.7-4.2-8.3-7.3-18.3-7.3c-10,0-17.6,3.1-18.3,7.3h-0.1v4.5c-0.6,0.5-1.7,1.5-1.8,2.9c-0.1,1.5,0,50.3,0,65.3   c0,1.5,0.6,3,1.6,4.1c2.2,2.2,7.4,6,18.5,6c11.1,0,16.4-3.7,18.5-6c1.1-1.1,1.6-2.5,1.6-4.1C69.8,70.5,69.9,21.7,69.8,20.2z    M49.6,7.4c9.2,0,15.7,2.8,16.4,5.5v0.8c-0.1,0.5-0.4,1-0.9,1.5c-1.4-1.7-5.4-5.2-15.4-5.2c-10,0-14.1,3.5-15.4,5.2   c-0.6-0.6-1-1.3-1-1.9C33.2,10.6,40,7.4,49.6,7.4z M56.8,16.4c-0.7-0.3-1.5-0.6-2.2-0.9c-1.7-0.7-3.4-1.4-4.6-1.8l0,0   c-1.9-2.2-5.7-2.1-7.3-1.4c-1.4,0.6-2.2,1.3-2.4,2.1c-0.2,0.5-0.1,1,0.2,1.5c0.6,1.1,2.4,1.4,3.4,1.5c0.2,0.3,0.6,0.6,1.1,0.9   c0.5,0.3,1,0.6,1.5,1c-5.3-0.4-9.4-1.7-11.5-3.3C36.2,14.4,40,11,49.6,11c9.6,0,13.4,3.4,14.7,4.9c-1.3,0.9-3.2,1.8-5.7,2.4   c0,0,0,0,0,0C58.6,17.5,58,16.9,56.8,16.4z M44.6,16.3c0.3-0.4,2.2-1.3,3.8-1.8c0.1,0,0.2,0,0.3,0c1.1,0,3.4,1,5.5,1.9   c0.8,0.3,1.5,0.6,2.2,0.9c1.1,0.4,1.2,0.8,1.2,1c0,0.1,0,0.1,0,0.2c-2.3,0.5-5,0.8-8,0.8c-0.4,0-0.9,0-1.3,0   c-0.3-0.2-0.7-0.5-1.1-0.7c-0.6-0.4-1.2-0.9-1.9-1.2c-0.6-0.3-0.8-0.6-0.8-0.7C44.5,16.4,44.6,16.3,44.6,16.3z M43.8,15.7   c0,0-0.2,0.2-0.2,0.6c-0.9-0.2-1.9-0.5-2.3-1c-0.1-0.2-0.2-0.4-0.1-0.7c0.2-0.5,0.9-1,1.9-1.5c1-0.4,3.5-0.6,5.2,0.4   c0,0-0.1,0-0.1,0C47.4,13.8,44.4,14.8,43.8,15.7z M33.2,17c3,2.6,9.1,4.2,16.4,4.2C57,21.2,63,19.6,66,17v0.4   c-0.7,0.9-4.5,4.7-16.2,4.8c-11.6,0-15.8-3.9-16.6-4.8V17z M67.8,85.4c0,1-0.4,2-1.1,2.7c-1.9,2-6.8,5.4-17.1,5.4   c-10.4,0-15.2-3.4-17.1-5.4c-0.7-0.7-1.1-1.7-1.1-2.7c0,0,0,0,0-0.1c2.2,1.8,7.8,5.5,18.2,5.5c10.4,0,16.1-3.8,18.3-5.6   C67.8,85.4,67.8,85.4,67.8,85.4z M33.2,83.6v-58c0,0,4.7,2.2,6.1,2.2v59.7C39.3,87.5,34.7,85.5,33.2,83.6z M49.6,26.3   c-11.4,0-16.3-3.2-18.2-4.9c0-0.6,0-0.9,0-1c0-0.5,0.4-1,0.7-1.3c1.6,1.6,6.5,5,17.6,5.1v0c0.1,0,0.1,0,0.1,0c0.1,0,0.1,0,0.2,0v0   c11.1-0.1,15.7-3.5,17.2-5.1c0.3,0.3,0.6,0.7,0.7,1.3c0,0.1,0,0.4,0,1C66,23.1,61,26.3,49.6,26.3z"/></g></svg>